<svg width="16" height="16" fill="none" xmlns="http://www.w3.org/2000/svg"><g clip-path="url(#a)"><path d="M11.333 1.99998c.1751-.1751.383-.31399.6117-.40875.2288-.09476.474-.14354.7216-.14354.2477 0 .4929.04878.7216.14354.2288.09476.4367.23365.6118.40875.1751.17509.314.38296.4087.61174.0948.22877.1436.47397.1436.72159 0 .24762-.0488.49282-.1436.7216-.0947.22877-.2336.43664-.4087.61173L4.99967 13.6666l-3.66666 1 1-3.6666L11.333 1.99998Z" stroke="#323F47" stroke-width="1.8" stroke-linecap="round" stroke-linejoin="round"/></g><defs><clipPath id="a"><path fill="#fff" d="M0 0h16v16H0z"/></clipPath></defs></svg>