<svg width="20" height="20" fill="none" xmlns="http://www.w3.org/2000/svg"><g clip-path="url(#a)" stroke="#2F2F2F" stroke-width="1.8" stroke-linecap="round" stroke-linejoin="round"><path d="M14.9497 14.9499c-1.4245 1.0859-3.1591 1.6874-4.95002 1.7167-5.83334 0-9.166672-6.66666-9.166672-6.66666 1.036572-1.93175 2.474282-3.61949 4.216662-4.95m3.20001-1.51667c.57361-.13426 1.16088-.20138 1.75-.2 5.83332 0 9.16662 6.66667 9.16662 6.66667-.5058.94636-1.1091 1.83726-1.8 2.65836m-5.6-.8917c-.2288.2456-.5048.4426-.8115.5793-.3067.1366-.6377.2101-.97338.216-.33568.0059-.66911-.0558-.9804-.1816-.3113-.1257-.59408-.3128-.83147-.5502-.2374-.2374-.42455-.5202-.55028-.8315-.12574-.3113-.18749-.6447-.18157-.9804.00593-.33568.0794-.66672.21604-.97339.13664-.30666.33365-.58266.57927-.81154M.833008.833374 19.1663 19.1667"/></g><defs><clipPath id="a"><path fill="#fff" d="M0 0h20v20H0z"/></clipPath></defs></svg>