<svg width="24" height="24" fill="none" xmlns="http://www.w3.org/2000/svg"><path d="M17.2 14c.277 0 .4155 0 .5278.0615.0926.0507.1787.146.22.2432.05.1178.0374.2432.0122.494-.1304 1.3-.5778 2.5527-1.3082 3.6458-.8791 1.3156-2.1285 2.341-3.5903 2.9465-1.4618.6055-3.07037.7639-4.62222.4553-1.55185-.3087-2.97731-1.0707-4.09613-2.1895-1.11882-1.1188-1.88075-2.5443-2.18943-4.0961-.30868-1.5519-.15025-3.1604.45525-4.6222.6055-1.4618 1.63088-2.71123 2.94647-3.59028 1.09312-.7304 2.34581-1.17784 3.64587-1.30828.25076-.02516.37614-.03774.49397.01225.09721.04124.19248.12743.24322.22003.0615.11226.0615.25076.0615.52776V13.2c0 .28 0 .42.0545.527.0479.0941.1244.1705.2185.2185C10.38 14 10.52 14 10.8 14h6.4Z" stroke="#323F47" stroke-width="2" stroke-linecap="round" stroke-linejoin="round"/><path d="M14 2.79999c0-.27701 0-.41551.0615-.52776.0507-.0926.146-.17879.2432-.22003.1178-.05.2432-.03742.494-.01227 1.8284.1834 3.5473.99236 4.8582 2.3032 1.3108 1.31085 2.1198 3.02976 2.3032 4.85816.0251.25077.0377.37615-.0123.49398-.0412.09721-.1274.19247-.22.24321-.1123.0615-.2508.06151-.5278.06151h-6.4c-.28 0-.42 0-.527-.0545-.0941-.04794-.1706-.12443-.2185-.21851C14 9.62003 14 9.48001 14 9.19999v-6.4Z" stroke="#9BE1A0" stroke-width="2" stroke-linecap="round" stroke-linejoin="round"/></svg>