<svg width="16" height="16" fill="none" xmlns="http://www.w3.org/2000/svg"><g clip-path="url(#a)" stroke="#323F47" stroke-width="1.5" stroke-linecap="round" stroke-linejoin="round"><path d="M8 10c1.10457 0 2-.89543 2-2s-.89543-2-2-2-2 .89543-2 2 .89543 2 2 2Z"/><path d="M12.9337 10c-.0888.2011-.1153.4242-.076.6404.0392.2163.1423.4158.296.573l.04.04c.1239.1238.2223.2708.2894.4327.0671.1619.1016.3354.1016.5106 0 .1752-.0345.3487-.1016.5106-.0671.1618-.1655.3089-.2894.4327-.1239.124-.2709.2223-.4328.2894-.1619.0671-.3354.1017-.5106.1017-.1752 0-.3487-.0346-.5106-.1017-.1618-.0671-.3089-.1654-.4327-.2894l-.04-.04c-.1571-.1537-.3567-.2568-.5729-.296-.2163-.0392-.4394-.0127-.6404.076-.19722.0845-.36538.2249-.48384.4037-.11845.1789-.18201.3885-.18287.603V14c0 .3536-.14047.6928-.39052.9428-.25005.2501-.58919.3906-.94281.3906-.35362 0-.69276-.1405-.94281-.3906-.25005-.25-.39052-.5892-.39052-.9428v-.06c-.00517-.2206-.07659-.4346-.205-.6142-.1284-.1795-.30785-.3163-.515-.3924-.20108-.0888-.42413-.1153-.6404-.076-.21626.0392-.41582.1423-.57294.296l-.04.04c-.12383.1239-.27088.2223-.43274.2894-.16187.0671-.33537.1016-.51059.1016s-.34872-.0345-.51059-.1016c-.16186-.0671-.30891-.1655-.43274-.2894-.12397-.1239-.22232-.2709-.28942-.4328-.0671-.1619-.10163-.3354-.10163-.5106 0-.1752.03453-.3487.10163-.5106.0671-.1618.16545-.3089.28942-.4327l.04-.04c.15369-.1571.25679-.3567.296-.573.03921-.2162.01274-.4393-.076-.6403-.08451-.19722-.22483-.36539-.40369-.48384s-.38846-.18202-.60298-.18287h-.11333c-.35363 0-.69276-.14048-.94281-.39053-.250052-.25005-.390528-.58918-.390528-.94281 0-.35362.140476-.69276.390528-.9428.25005-.25005.58918-.39053.94281-.39053h.06c.22066-.00516.43467-.07659.6142-.20499.17952-.12841.31627-.30785.39246-.51501.08875-.20108.11522-.42413.07601-.64039-.03922-.21626-.14232-.41582-.29601-.57294l-.04-.04c-.12397-.12383-.22231-.27088-.28941-.43275a1.3333209 1.3333209 0 0 1-.10164-.51059c0-.17522.03454-.34872.10164-.51058.0671-.16187.16544-.30892.28941-.43275.12383-.12397.27088-.22231.43275-.28941.16186-.0671.33537-.10164.51059-.10164s.34872.03454.51058.10164c.16187.0671.30892.16544.43275.28941l.04.04c.15712.15369.35668.25679.57294.296.21626.03922.43932.01274.64039-.076h.05334c.19718-.08451.36534-.22483.48379-.40369s.18202-.38845.18287-.60298v-.11333c0-.35362.14048-.69276.39053-.94281.25005-.250047.58918-.390523.94281-.390523.35362 0 .69276.140476.94281.390523.25004.25005.39052.58919.39052.94281v.06c.00086.21452.06442.42412.18287.60298.11845.17886.28662.31918.48377.40369.2011.08874.4242.11521.6404.076.2163-.03921.4158-.14231.573-.296l.04-.04c.1238-.12397.2708-.22232.4327-.28942.1619-.06709.3354-.10163.5106-.10163.1752 0 .3487.03454.5106.10163.1618.0671.3089.16545.4327.28942.124.12383.2223.27088.2894.43274.0671.16187.1017.33537.1017.51059s-.0346.34872-.1017.51059c-.0671.16186-.1654.30891-.2894.43274l-.04.04c-.1537.15712-.2568.35668-.296.57294-.0392.21627-.0127.43932.076.6404v.05333c.0845.19718.2249.36535.4037.4838.1789.11845.3885.18201.603.18287h.1133c.3536 0 .6928.14047.9428.39052.2501.25005.3906.58919.3906.94281 0 .35362-.1405.69276-.3906.94281-.25.25005-.5892.39052-.9428.39052h-.06c-.2145.00086-.4241.06443-.6029.18288-.1789.11845-.3192.28661-.4037.48377Z"/></g><defs><clipPath id="a"><path fill="#fff" d="M0 0h16v16H0z"/></clipPath></defs></svg>